<svg xmlns="http://www.w3.org/2000/svg" viewBox="0 0 72 72">
	<rect width="100%" height="100%" fill="#1FA1F2" />
	<path class="st1" d="M54,24.9c-1.3,0.6-2.7,1-4.2,1.2c1.5-0.9,2.7-2.4,3.2-4.1c-1.4,0.8-3,1.5-4.7,1.8c-1.3-1.4-3.3-2.3-5.4-2.3
	c-4.1,0-7.4,3.3-7.4,7.4c0,0.6,0.1,1.1,0.2,1.7c-6.1-0.3-11.6-3.2-15.2-7.7c-0.6,1.1-1,2.4-1,3.7c0,2.6,1.3,4.8,3.3,6.1
	c-1.2,0-2.3-0.4-3.3-0.9v0.1c0,3.6,2.5,6.6,5.9,7.2c-0.6,0.2-1.3,0.3-1.9,0.3c-0.5,0-0.9,0-1.4-0.1c0.9,2.9,3.7,5.1,6.9,5.1
	c-2.5,2-5.7,3.2-9.2,3.2c-0.6,0-1.2,0-1.8-0.1c3.3,2.1,7.1,3.3,11.3,3.3c13.6,0,21-11.2,21-21l0-1C51.7,27.6,53,26.3,54,24.9z" fill="#FFFFFF" />
</svg>
